<svg height="496pt" viewBox="0 0 496 496" width="496pt" xmlns="http://www.w3.org/2000/svg" xmlns:xlink="http://www.w3.org/1999/xlink"><linearGradient id="a" gradientUnits="userSpaceOnUse" x1="248" x2="248" y1="496" y2="0"><stop offset="0" stop-color="#9f2fff"/><stop offset="1" stop-color="#0bb1d3"/></linearGradient><path d="m272 272h80v16h-80zm0 48h80v-16h-80zm-160-208h272v272h-272zm16 256h240v-240h-240zm288-256h80v16h-80v16h48v16h-48v16h80v16h-80v16h48v16h-48v16h80v16h-80v16h48v16h-48v16h80v16h-80v16h48v16h-48v16h80v16h-80v3.3125l-28.6875 28.6875h-3.3125v80h-16v-80h-16v48h-16v-48h-16v80h-16v-80h-16v48h-16v-48h-16v80h-16v-80h-16v48h-16v-48h-16v80h-16v-80h-16v48h-16v-48h-16v80h-16v-80h-3.3125l-28.6875-28.6875v-3.3125h-80v-16h80v-16h-48v-16h48v-16h-80v-16h80v-16h-48v-16h48v-16h-80v-16h80v-16h-48v-16h48v-16h-80v-16h80v-16h-48v-16h48v-16h-80v-16h80v-3.3125l28.6875-28.6875h3.3125v-80h16v80h16v-48h16v48h16v-80h16v80h16v-48h16v48h16v-80h16v80h16v-48h16v48h16v-80h16v80h16v-48h16v48h16v-80h16v80h3.3125l28.6875 28.6875zm-16 3.3125-19.3125-19.3125h-265.375l-19.3125 19.3125v265.375l19.3125 19.3125h265.375l19.3125-19.3125zm-384 92.6875h-16v16h16zm0-64h-16v16h16zm0 128h-16v16h16zm0 64h-16v16h16zm208 144h-16v16h16zm-80 0v16h16v-16zm128 0v16h16v-16zm64 0v16h16v-16zm144-192h16v-16h-16zm0 64h16v-16h-16zm0-128h16v-16h-16zm0-64h16v-16h-16zm-192-160h-16v16h16zm64 0h-16v16h16zm-128 0h-16v16h16zm-64 0h-16v16h16zm176 352h16v-16h-16zm-32 0h16v-16h-16zm-32 0h16v-16h-16zm-64-176c0 17.648438-14.351562 32-32 32s-32-14.351562-32-32 14.351562-32 32-32 32 14.351562 32 32zm-16 0c0-8.824219-7.175781-16-16-16s-16 7.175781-16 16 7.175781 16 16 16 16-7.175781 16-16zm0 0" fill="url(#a)"/></svg>